<svg width="22" height="21" viewBox="0 0 22 21" fill="none" xmlns="http://www.w3.org/2000/svg">
<path d="M6.31337 7.32668H10.9658C11.216 7.32668 11.4188 7.12383 11.4188 6.87367C11.4188 6.6235 11.216 6.42065 10.9658 6.42065H6.31337C6.0632 6.42065 5.86035 6.6235 5.86035 6.87367C5.86035 7.12383 6.0632 7.32668 6.31337 7.32668Z" fill="#1C1D1F"/>
<path d="M6.31337 9.78957H8.40478C8.65495 9.78957 8.8578 9.58672 8.8578 9.33656C8.8578 9.08639 8.65495 8.88354 8.40478 8.88354H6.31337C6.0632 8.88354 5.86035 9.08639 5.86035 9.33656C5.86035 9.58672 6.0632 9.78957 6.31337 9.78957Z" fill="#1C1D1F"/>
<path d="M13.6325 3.625H5.36746C4.1574 3.625 3.17285 4.60955 3.17285 5.8196V15.0057C3.17285 16.2158 4.1574 17.2003 5.36746 17.2003H6.66273C6.91289 17.2003 7.11574 16.9975 7.11574 16.7473C7.11574 16.4972 6.91289 16.2943 6.66273 16.2943H5.36746C4.65723 16.2943 4.07888 15.7165 4.07888 15.0057V5.8196C4.07888 5.10887 4.65673 4.53103 5.36746 4.53103H13.6325C14.3427 4.53103 14.921 5.10887 14.921 5.8196V15.0057C14.921 15.5629 14.5657 16.0537 14.0356 16.2264C13.7976 16.3039 13.6682 16.5596 13.7457 16.7977C13.8232 17.0357 14.0789 17.1646 14.317 17.0876C15.2205 16.7931 15.8276 15.9561 15.8276 15.0057V5.8196C15.8271 4.60955 14.8425 3.625 13.6325 3.625Z" fill="#1C1D1F"/>
<path d="M9.9201 12.4658C8.58623 12.4658 7.5 13.551 7.5 14.8854C7.5 15.5584 7.77735 16.1669 8.22231 16.6059V19.1719C8.22231 19.3386 8.31392 19.4916 8.46039 19.5706C8.60737 19.6501 8.78556 19.6421 8.92448 19.5505L9.92061 18.8971L10.9167 19.5505C10.9917 19.5998 11.0783 19.6245 11.1654 19.6245C11.2389 19.6245 11.3134 19.6063 11.3808 19.5701C11.5273 19.4911 11.6189 19.3381 11.6189 19.1714V16.6049C12.0634 16.1659 12.3407 15.5574 12.3407 14.8844C12.3397 13.551 11.2545 12.4658 9.9201 12.4658ZM9.9201 13.3718C10.7542 13.3718 11.4332 14.0509 11.4332 14.8854C11.4332 15.72 10.7542 16.399 9.9201 16.399C9.08555 16.399 8.40653 15.72 8.40653 14.8854C8.40653 14.0509 9.08555 13.3718 9.9201 13.3718ZM10.7119 18.3329L10.1693 17.9765C10.0178 17.8778 9.82296 17.8778 9.67195 17.9765L9.12934 18.3329V17.1611C9.3785 17.2481 9.64226 17.305 9.92061 17.305C10.1995 17.305 10.4627 17.2481 10.7119 17.1611V18.3329Z" fill="#1C1D1F"/>
<circle cx="16.5312" cy="15.0308" r="4.625" fill="white" stroke="white"/>
<circle cx="16.5312" cy="15.0308" r="3.825" fill="#F2F7FF" stroke="#1C1D1F" stroke-width="0.6"/>
<path d="M18.002 13.5C18.1398 13.5003 18.252 13.6121 18.252 13.75C18.252 13.8879 18.1398 13.9997 18.002 14H17.1094C17.165 14.0926 17.2178 14.1886 17.2617 14.2871C17.2921 14.3554 17.3185 14.427 17.3418 14.5H18.002C18.1398 14.5003 18.252 14.6121 18.252 14.75C18.252 14.8879 18.1398 14.9997 18.002 15H17.4141C17.4118 15.0388 17.4081 15.0777 17.4014 15.1162C17.3487 15.4167 17.1598 15.6677 16.8232 15.8252C16.6269 15.9169 16.3809 15.9766 16.0811 16.0029L17.6406 17.042L17.6797 17.0742C17.7613 17.1568 17.7767 17.2883 17.71 17.3887C17.643 17.489 17.5158 17.5249 17.4082 17.4814L17.3633 17.458L15.2725 16.0645C15.1402 15.9763 15.1182 15.8235 15.1572 15.7139C15.1957 15.6061 15.3044 15.5055 15.4561 15.5127L15.6631 15.5186C16.1208 15.523 16.4217 15.4606 16.6113 15.3721C16.8138 15.2773 16.8872 15.1554 16.9092 15.0303C16.9109 15.0205 16.91 15.0102 16.9111 15H15.252C15.1139 15 15.002 14.8881 15.002 14.75C15.002 14.6119 15.1139 14.5 15.252 14.5H16.8086C16.8072 14.4968 16.8061 14.4934 16.8047 14.4902C16.7284 14.3192 16.6199 14.1497 16.5049 14H15.252C15.1139 14 15.002 13.8881 15.002 13.75C15.002 13.6119 15.1139 13.5 15.252 13.5H18.002Z" fill="#1C1D1F"/>
</svg>
